<svg width="26" height="26" viewBox="0 0 26 26" fill="none" xmlns="http://www.w3.org/2000/svg">
<path fill-rule="evenodd" clip-rule="evenodd" d="M13 1C6.37258 1 1 6.37258 1 13C1 19.6274 6.37258 25 13 25C19.6274 25 25 19.6274 25 13C25 6.37258 19.6274 1 13 1Z" fill="#E82E2E"/>
<mask id="mask0_2029_7859" style="mask-type:luminance" maskUnits="userSpaceOnUse" x="1" y="1" width="24" height="24">
<path fill-rule="evenodd" clip-rule="evenodd" d="M13 1C6.37258 1 1 6.37258 1 13C1 19.6274 6.37258 25 13 25C19.6274 25 25 19.6274 25 13C25 6.37258 19.6274 1 13 1Z" fill="white"/>
</mask>
<g mask="url(#mask0_2029_7859)">
<path d="M13 7L14.4164 11.1252H19L15.2917 13.6747L16.7082 17.8L13 15.2505L9.29177 17.8L10.7082 13.6747L7 11.1252H11.5835L13 7Z" fill="#FED949"/>
</g>
<path fill-rule="evenodd" clip-rule="evenodd" d="M13 1C6.37258 1 1 6.37258 1 13V13C1 19.6274 6.37258 25 13 25V25C19.6274 25 25 19.6274 25 13V13C25 6.37258 19.6274 1 13 1V1Z" stroke="#2F343A" stroke-opacity="0.156646" stroke-width="0.952381"/>
<mask id="mask1_2029_7859" style="mask-type:luminance" maskUnits="userSpaceOnUse" x="0" y="0" width="26" height="26">
<path fill-rule="evenodd" clip-rule="evenodd" d="M13 1C6.37258 1 1 6.37258 1 13C1 19.6274 6.37258 25 13 25C19.6274 25 25 19.6274 25 13C25 6.37258 19.6274 1 13 1Z" fill="white" stroke="white" stroke-width="0.952381"/>
</mask>
<g mask="url(#mask1_2029_7859)">
</g>
</svg>
